<!DOCTYPE svg PUBLIC "-//W3C//DTD SVG 1.1//EN" "http://www.w3.org/Graphics/SVG/1.1/DTD/svg11.dtd">
<!-- Uploaded to: SVG Repo, www.svgrepo.com, Transformed by: SVG Repo Mixer Tools -->
<svg fill="#a855f9" width="800px" height="800px" viewBox="-51.2 -51.2 614.40 614.40" version="1.1" xml:space="preserve" xmlns="http://www.w3.org/2000/svg" xmlns:xlink="http://www.w3.org/1999/xlink" stroke="#a855f9" transform="matrix(-1, 0, 0, 1, 0, 0)rotate(0)">
<g id="SVGRepo_bgCarrier" stroke-width="0" transform="translate(0,0), scale(1)">
<path transform="translate(-51.2, -51.2), scale(19.2)" d="M16,26.49170384183526C19.53086618188976,26.339417303358374,23.13197380179703,26.165795416233976,25.691227035171302,23.72849566616683C28.747224099274213,20.818122912344585,31.706090264472095,16.73379748248339,30.48921140204901,12.69293204842296C29.30819810497488,8.771164683831056,24.51359662168036,7.546623607819149,20.530675602608802,6.591955170254561C17.664381486338225,5.904931623345647,14.98274376623984,7.095111773230684,12.308862847202207,8.335274724532287C9.557902990504536,9.611187376626873,6.655576338169457,10.811190991341547,5.441961478515303,13.59019660511129C3.894611865406972,17.133407391536476,2.7519377858987446,21.62012936708254,5.20056829093777,24.612259403029945C7.635216800470228,27.58730399116005,12.159301643171013,26.657353466591733,16,26.49170384183526" fill="#f3e6ff" strokewidth="0"/>
</g>
<g id="SVGRepo_tracerCarrier" stroke-linecap="round" stroke-linejoin="round" stroke="#CCCCCC" stroke-width="1.024"/>
<g id="SVGRepo_iconCarrier"> <g id="diary_book-book-heart-love-valentine"> <path d="M456,168h-8v-44.977c0-15.027-13.623-26.219-28.109-23.648l-163.892,28.504L92.172,98.992 C77.56,96.372,64,107.656,64,122.625V168h-8c-8.836,0-16,7.163-16,16v184c0,8.836,7.164,16,16,16h130.745 c13.602,0,19.88,6.625,27.882,14.627c6.001,6.001,14.141,9.373,22.627,9.373c13.566,0,23.924,0,37.49,0 c8.487,0,16.626-3.372,22.627-9.373c8-8,14.268-14.627,27.882-14.627H456c8.836,0,16-7.164,16-16V184 C472,175.163,464.836,168,456,168z M422.633,115.141c4.748-0.848,9.367,2.787,9.367,7.883v199.109c0,3.891-2.781,7.203-6.609,7.883 L264,358.469V142.727L422.633,115.141z M80,122.625c0-4.952,4.446-8.733,9.391-7.883L248,142.711v215.758L86.609,330.016 c-3.828-0.68-6.609-3.992-6.609-7.883V122.625z M288.125,267.727c-0.773-4.352,2.133-8.5,6.484-9.266l104-18.336 c4.336-0.82,8.5,2.133,9.266,6.484c0.773,4.352-2.133,8.5-6.484,9.266l-104,18.336c-0.469,0.086-0.938,0.125-1.398,0.125 C292.18,274.336,288.805,271.609,288.125,267.727z M288.125,227.727c-0.773-4.352,2.133-8.5,6.484-9.266l104-18.336 c4.336-0.805,8.5,2.133,9.266,6.484c0.773,4.352-2.133,8.5-6.484,9.266l-104,18.336c-0.469,0.086-0.938,0.125-1.398,0.125 C292.18,234.336,288.805,231.609,288.125,227.727z M288.125,187.727c-0.773-4.352,2.133-8.5,6.484-9.266l104-18.336 c4.336-0.82,8.5,2.133,9.266,6.484c0.773,4.352-2.133,8.5-6.484,9.266l-104,18.336c-0.469,0.086-0.938,0.125-1.398,0.125 C292.18,194.336,288.805,191.609,288.125,187.727z M288.125,307.727c-0.773-4.352,2.133-8.5,6.484-9.266l104-18.336 c4.336-0.805,8.5,2.133,9.266,6.484c0.773,4.352-2.133,8.5-6.484,9.266l-104,18.336c-0.469,0.086-0.938,0.125-1.398,0.125 C292.18,314.336,288.805,311.609,288.125,307.727z M118.239,218.242c-11.85-14.068-13.889-33.678-3.614-45.243 c12.414-13.972,35.529-10.978,49.375,5.462c13.847-11.557,36.961-6.399,49.375,11.951c10.275,15.188,8.235,34.079-3.614,43.968 l-32.5,27.125c-7.318,6.108-19.204,4.012-26.522-4.677L118.239,218.242z"/> </g> <g id="Layer_1"/> </g>
</svg>